<svg width="77" height="77" viewBox="0 0 77 77" fill="none" xmlns="http://www.w3.org/2000/svg">
<path d="M27.6489 11.348V59.2769L10.8191 65.588V17.6592L27.6489 11.348Z" fill="white"/>
<path d="M57.4375 62.5106L49.2871 65.588V60.6112C49.5997 60.5271 49.9002 60.4189 50.2007 60.3107L50.5253 60.1905C50.8258 60.0703 51.1264 59.95 51.4269 59.8058C51.5112 59.7799 51.592 59.7436 51.6673 59.6976C51.9122 59.5901 52.1492 59.4656 52.3766 59.3249L52.4968 59.2648H52.593C52.9055 59.0965 53.206 58.9162 53.5066 58.7239L57.4375 62.5106Z" fill="white"/>
<path d="M66.1169 11.348V59.2769L64.9148 59.7577L58.7118 53.5547C60.4348 50.8433 61.3366 47.6912 61.3084 44.4787C61.3084 43.9858 61.3084 43.5049 61.3084 43.0241C61.3084 42.5432 61.2122 42.1465 61.1401 41.7138C61.1401 41.5575 61.1401 41.4012 61.0559 41.257C60.8391 40.0788 60.4882 38.9293 60.0101 37.8309C59.9259 37.6145 59.8298 37.4222 59.7336 37.2178C59.6374 37.0134 59.6014 36.9413 59.5292 36.7971L59.2888 36.3403C58.8077 35.4623 58.2485 34.6294 57.6179 33.8519C57.3895 33.5754 57.161 33.3109 56.9206 33.0585C56.7487 32.8546 56.564 32.6618 56.3676 32.4814C56.2354 32.3492 56.1032 32.217 55.9589 32.0967C55.9088 32.0386 55.8523 31.9862 55.7906 31.9405C55.4781 31.652 55.1415 31.3755 54.8049 31.111C54.0111 30.5097 53.1664 29.9787 52.2804 29.5242L51.8116 29.2958L51.2826 29.0554L50.7056 28.851C50.381 28.7188 50.0444 28.5986 49.7079 28.4904L49.2871 28.3461V17.6592L66.1169 11.348Z" fill="white"/>
<path d="M30.4379 53.7471C30.4614 53.7977 30.4896 53.846 30.522 53.8913C30.6302 54.0476 30.7384 54.2039 30.8586 54.3481L30.4379 53.7471ZM30.4379 53.7471C30.4614 53.7977 30.4896 53.846 30.522 53.8913C30.6302 54.0476 30.7384 54.2039 30.8586 54.3481L30.4379 53.7471ZM30.4379 53.7471C30.4614 53.7977 30.4896 53.846 30.522 53.8913C30.6302 54.0476 30.7384 54.2039 30.8586 54.3481L30.4379 53.7471ZM30.4379 53.7471C30.4614 53.7977 30.4896 53.846 30.522 53.8913C30.6302 54.0476 30.7384 54.2039 30.8586 54.3481L30.4379 53.7471Z" fill="white"/>
<path d="M46.8829 61.1401V65.588L30.0531 59.2769V53.146C30.1733 53.3504 30.3055 53.5547 30.4378 53.7471C30.4613 53.7976 30.4895 53.8459 30.5219 53.8913C30.6301 54.0476 30.7383 54.2039 30.8585 54.3481C30.9802 54.5283 31.1126 54.7009 31.2552 54.865C31.4476 55.1055 31.6399 55.3459 31.8443 55.5743L32.0967 55.8628L32.6858 56.4759C33.1995 56.9798 33.7457 57.4496 34.3207 57.8824C34.489 58.0146 34.6572 58.1469 34.8376 58.2671C35.0179 58.3873 35.3064 58.5916 35.5468 58.7359L36.196 59.1206C36.4725 59.2768 36.749 59.4331 37.0254 59.5654C37.1717 59.6495 37.3245 59.7219 37.4822 59.7817L37.9391 59.9861L38.5161 60.2145C38.8206 60.3347 39.1332 60.4429 39.4537 60.5391L39.8985 60.6713L40.2351 60.7675C40.973 60.9631 41.7244 61.1037 42.4831 61.1882H42.976C43.2284 61.1882 43.4688 61.1882 43.7213 61.1882C43.9737 61.1882 44.2262 61.1882 44.4786 61.1882H45.1518L45.6808 61.3084C45.9693 61.3084 46.2578 61.3084 46.5463 61.2243L46.8829 61.1401Z" fill="white"/>
<path d="M46.8829 17.6592V27.8172H46.5463C46.2578 27.8172 45.9693 27.745 45.6808 27.733H45.1518H44.4786C43.9737 27.733 43.4688 27.733 42.976 27.8051H42.4831C40.7516 28.0032 39.0632 28.4781 37.4822 29.2116C37.3245 29.2715 37.1717 29.3439 37.0254 29.428C36.749 29.5603 36.4725 29.7165 36.196 29.8728C35.9195 30.0291 35.7632 30.1132 35.5468 30.2575C35.3304 30.4017 35.078 30.558 34.8376 30.7263C34.6575 30.8438 34.4849 30.9723 34.3207 31.111C33.7475 31.5244 33.2014 31.9741 32.6858 32.4574L32.3973 32.7459C31.9908 33.1637 31.6094 33.6053 31.2552 34.0682C31.109 34.2293 30.9763 34.4022 30.8585 34.5851C30.57 34.9819 30.3055 35.3786 30.0531 35.7873V11.348L46.8829 17.6592Z" fill="white"/>
<path d="M45.6808 54.0115C45.7806 54.0233 45.8815 54.0233 45.9813 54.0115H46.2818H45.6808ZM45.9813 34.9818C45.8815 34.9701 45.7806 34.9701 45.6808 34.9818L46.2818 35.078L45.9813 34.9818ZM46.39 35.054H46.2818L46.7867 35.1621L46.39 35.054ZM45.6808 54.0115C45.7806 54.0233 45.8815 54.0233 45.9813 54.0115H46.2818H45.6808ZM45.9813 34.9818C45.8815 34.9701 45.7806 34.9701 45.6808 34.9818L46.2818 35.078L45.9813 34.9818ZM46.39 35.054H46.2818L46.7867 35.1621L46.39 35.054Z" fill="white"/>
<path d="M52.605 35.6189L52.4968 35.5348L52.8093 35.8233C52.7492 35.7512 52.6771 35.6911 52.605 35.6189ZM49.2871 36.1479C49.4125 36.2111 49.533 36.2834 49.6477 36.3643L49.2871 36.1479ZM52.605 35.6189L52.4968 35.5348L52.8093 35.8233C52.7492 35.7512 52.6771 35.6911 52.605 35.6189ZM49.2871 36.1479C49.4125 36.2111 49.533 36.2834 49.6477 36.3643L49.2871 36.1479ZM52.605 35.6189L52.4968 35.5348L52.8093 35.8233C52.7492 35.7512 52.6771 35.6911 52.605 35.6189ZM49.2871 36.1479C49.4125 36.2111 49.533 36.2834 49.6477 36.3643L49.2871 36.1479ZM52.605 35.6189L52.4968 35.5348L52.8093 35.8233C52.7492 35.7512 52.6771 35.6911 52.605 35.6189ZM49.2871 36.1479C49.4125 36.2111 49.533 36.2834 49.6477 36.3643L49.2871 36.1479ZM52.605 35.6189L52.4968 35.5348L52.8093 35.8233C52.7492 35.7512 52.6771 35.6911 52.605 35.6189ZM49.2871 36.1479C49.4125 36.2111 49.533 36.2834 49.6477 36.3643L49.2871 36.1479ZM52.605 35.6189L52.4968 35.5348L52.8093 35.8233C52.7492 35.7512 52.6771 35.6911 52.605 35.6189ZM49.2871 36.1479C49.4125 36.2111 49.533 36.2834 49.6477 36.3643L49.2871 36.1479ZM52.605 35.6189L52.4968 35.5348L52.8093 35.8233C52.7492 35.7512 52.6771 35.6911 52.605 35.6189ZM49.2871 36.1479C49.4125 36.2111 49.533 36.2834 49.6477 36.3643L49.2871 36.1479ZM52.605 35.6189L52.4968 35.5348L52.8093 35.8233C52.7492 35.7512 52.6771 35.6911 52.605 35.6189ZM49.2871 36.1479C49.4125 36.2111 49.533 36.2834 49.6477 36.3643L49.2871 36.1479ZM52.605 35.6189L52.4968 35.5348L52.8093 35.8233C52.7492 35.7512 52.6771 35.6911 52.605 35.6189ZM49.2871 36.1479C49.4125 36.2111 49.533 36.2834 49.6477 36.3643L49.2871 36.1479ZM52.605 35.6189L52.4968 35.5348L52.8093 35.8233C52.7492 35.7512 52.6771 35.6911 52.605 35.6189ZM49.2871 36.1479C49.4125 36.2111 49.533 36.2834 49.6477 36.3643L49.2871 36.1479ZM52.605 35.6189L52.4968 35.5348L52.8093 35.8233C52.7492 35.7512 52.6771 35.6911 52.605 35.6189ZM49.2871 36.1479C49.4125 36.2111 49.533 36.2834 49.6477 36.3643L49.2871 36.1479ZM52.605 35.6189L52.4968 35.5348L52.8093 35.8233C52.7492 35.7512 52.6771 35.6911 52.605 35.6189ZM49.2871 36.1479C49.4125 36.2111 49.533 36.2834 49.6477 36.3643L49.2871 36.1479ZM52.605 35.6189L52.4968 35.5348L52.8093 35.8233C52.7492 35.7512 52.6771 35.6911 52.605 35.6189ZM49.2871 36.1479C49.4125 36.2111 49.533 36.2834 49.6477 36.3643L49.2871 36.1479ZM52.605 35.6189L52.4968 35.5348L52.8093 35.8233C52.7492 35.7512 52.6771 35.6911 52.605 35.6189ZM49.2871 36.1479C49.4125 36.2111 49.533 36.2834 49.6477 36.3643L49.2871 36.1479ZM52.605 35.6189L52.4968 35.5348L52.8093 35.8233C52.7492 35.7512 52.6771 35.6911 52.605 35.6189ZM49.2871 36.1479C49.4125 36.2111 49.533 36.2834 49.6477 36.3643L49.2871 36.1479ZM52.605 35.6189L52.4968 35.5348L52.8093 35.8233C52.7492 35.7512 52.6771 35.6911 52.605 35.6189ZM49.2871 36.1479C49.4125 36.2111 49.533 36.2834 49.6477 36.3643L49.2871 36.1479ZM52.605 35.6189L52.4968 35.5348L52.8093 35.8233C52.7492 35.7512 52.6771 35.6911 52.605 35.6189ZM49.2871 36.1479C49.4125 36.2111 49.533 36.2834 49.6477 36.3643L49.2871 36.1479ZM52.605 35.6189L52.4968 35.5348L52.8093 35.8233C52.7492 35.7512 52.6771 35.6911 52.605 35.6189ZM49.2871 36.1479C49.4125 36.2111 49.533 36.2834 49.6477 36.3643L49.2871 36.1479ZM52.605 35.6189L52.4968 35.5348L52.8093 35.8233C52.7492 35.7512 52.6771 35.6911 52.605 35.6189ZM49.2871 36.1479C49.4125 36.2111 49.533 36.2834 49.6477 36.3643L49.2871 36.1479ZM52.605 35.6189L52.4968 35.5348L52.8093 35.8233C52.7492 35.7512 52.6771 35.6911 52.605 35.6189ZM49.2871 36.1479C49.4125 36.2111 49.533 36.2834 49.6477 36.3643L49.2871 36.1479ZM52.605 35.6189L52.4968 35.5348L52.8093 35.8233C52.7492 35.7512 52.6771 35.6911 52.605 35.6189ZM49.2871 36.1479C49.4125 36.2111 49.533 36.2834 49.6477 36.3643L49.2871 36.1479ZM52.605 35.6189L52.4968 35.5348L52.8093 35.8233C52.7492 35.7512 52.6771 35.6911 52.605 35.6189ZM49.2871 36.1479C49.4125 36.2111 49.533 36.2834 49.6477 36.3643L49.2871 36.1479ZM52.605 35.6189L52.4968 35.5348L52.8093 35.8233C52.7492 35.7512 52.6771 35.6911 52.605 35.6189ZM49.2871 36.1479C49.4125 36.2111 49.533 36.2834 49.6477 36.3643L49.2871 36.1479ZM52.605 35.6189L52.4968 35.5348L52.8093 35.8233C52.7492 35.7512 52.6771 35.6911 52.605 35.6189ZM49.2871 36.1479C49.4125 36.2111 49.533 36.2834 49.6477 36.3643L49.2871 36.1479ZM52.605 35.6189L52.4968 35.5348L52.8093 35.8233C52.7492 35.7512 52.6771 35.6911 52.605 35.6189ZM49.2871 36.1479C49.4125 36.2111 49.533 36.2834 49.6477 36.3643L49.2871 36.1479ZM52.605 35.6189L52.4968 35.5348L52.8093 35.8233C52.7492 35.7512 52.6771 35.6911 52.605 35.6189ZM49.2871 36.1479C49.4125 36.2111 49.533 36.2834 49.6477 36.3643L49.2871 36.1479ZM52.605 35.6189L52.4968 35.5348L52.8093 35.8233C52.7492 35.7512 52.6771 35.6911 52.605 35.6189ZM49.2871 36.1479C49.4125 36.2111 49.533 36.2834 49.6477 36.3643L49.2871 36.1479Z" fill="white"/>
<path d="M65.8645 64.1695L63.7127 62.0658L56.1874 54.5525C55.9837 54.3494 55.8596 54.0801 55.8375 53.7934C55.8155 53.5066 55.8969 53.2215 56.0671 52.9897C57.4718 51.0696 58.3798 48.8319 58.7103 46.4759C59.0407 44.1199 58.7833 41.7188 57.961 39.4863C57.1387 37.2539 55.7771 35.2595 53.9973 33.6807C52.2176 32.102 50.075 30.9879 47.7604 30.4378C46.6845 30.1863 45.5836 30.0573 44.4786 30.0531C40.6527 30.0531 36.9836 31.5729 34.2782 34.2782C31.5729 36.9836 30.0531 40.6527 30.0531 44.4786C30.0531 48.3045 31.5729 51.9737 34.2782 54.679C36.9836 57.3843 40.6527 58.9042 44.4786 58.9042C45.5997 58.9036 46.7169 58.7746 47.8085 58.5195C49.6786 58.0714 51.4402 57.254 52.9897 56.1152C53.196 55.9659 53.4443 55.8859 53.6989 55.8868C53.8572 55.8859 54.014 55.9162 54.1605 55.9761C54.3069 56.0359 54.4401 56.124 54.5525 56.2354L60.4549 62.1499L64.1695 65.8645C64.3934 66.0866 64.6956 66.2118 65.011 66.2131C65.1692 66.214 65.326 66.1837 65.4725 66.1239C65.6189 66.064 65.7522 65.9759 65.8645 65.8645C66.0884 65.6393 66.2141 65.3346 66.2141 65.017C66.2141 64.6994 66.0884 64.3947 65.8645 64.1695ZM55.3699 49.5396C55.265 49.7895 55.1404 50.0307 54.9972 50.2609C54.4977 51.1996 53.8661 52.0618 53.1219 52.8214C52.9296 53.0258 52.7132 53.2301 52.4968 53.4225C52.2618 53.6426 52.0129 53.8474 51.7515 54.0355C51.5088 54.2255 51.256 54.402 50.9942 54.5645C50.7658 54.7208 50.5253 54.865 50.2729 55.0093C49.7552 55.2906 49.2167 55.5317 48.662 55.7305L48.4817 55.8027C47.1994 56.271 45.8438 56.5071 44.4786 56.4999C41.2904 56.4999 38.2327 55.2334 35.9783 52.979C33.7239 50.7245 32.4574 47.6669 32.4574 44.4786C32.4574 41.2904 33.7239 38.2327 35.9783 35.9783C38.2327 33.7239 41.2904 32.4574 44.4786 32.4574C45.8437 32.4512 47.1991 32.6872 48.4817 33.1546C48.5407 33.1713 48.5973 33.1955 48.65 33.2267C48.8891 33.3011 49.1222 33.3936 49.3472 33.5032L49.6237 33.6354L50.1887 33.9119L50.3089 33.9841C50.4919 34.0766 50.6686 34.181 50.8379 34.2966L51.0302 34.4168C51.1079 34.4607 51.1805 34.5131 51.2466 34.5731C51.4211 34.6742 51.586 34.7909 51.7395 34.9217L51.8116 34.9818C51.917 35.0553 52.0174 35.1356 52.1121 35.2222C52.2181 35.2992 52.3185 35.3836 52.4127 35.4747L52.5449 35.5949C52.617 35.667 52.6892 35.7271 52.7493 35.7993C52.8094 35.8714 52.9536 36.0036 53.0618 36.1118C53.2787 36.3287 53.4834 36.5575 53.6749 36.797C54.1386 37.3795 54.5414 38.0078 54.877 38.6724C55.0202 38.9025 55.1448 39.1437 55.2497 39.3936C55.4044 39.7003 55.5369 40.0177 55.6464 40.3433C55.7686 40.6659 55.873 40.995 55.9589 41.3291C56.0536 41.6653 56.1298 42.0064 56.1874 42.3509C56.309 42.6532 56.4134 42.9623 56.4999 43.2765C56.5057 43.3123 56.5057 43.3489 56.4999 43.3847C56.564 44.0805 56.564 44.7806 56.4999 45.4764C56.5211 45.5429 56.5211 45.6143 56.4999 45.6808C56.4736 45.9995 56.4294 46.3166 56.3677 46.6304C56.3101 46.9749 56.2339 47.316 56.1393 47.6522C56.0533 47.9863 55.9489 48.3154 55.8267 48.638C55.6957 48.9488 55.5431 49.2501 55.3699 49.5396Z" fill="white"/>
<path d="M52.605 35.6189L52.4727 35.4987L52.7853 35.7872C52.7492 35.7512 52.6771 35.6911 52.605 35.6189ZM51.8356 34.9818H51.8957C51.9831 35.0316 52.0639 35.0922 52.1362 35.1621C52.0397 35.0961 51.9393 35.0358 51.8356 34.9818ZM49.2871 36.1839C49.4125 36.2471 49.533 36.3194 49.6477 36.4003L49.2871 36.1839Z" fill="white"/>
<path d="M52.605 35.6189L52.4727 35.4987L52.7853 35.7872C52.7492 35.7512 52.6771 35.6911 52.605 35.6189ZM51.8356 34.9818H51.8957C51.9831 35.0316 52.0639 35.0922 52.1362 35.1621C52.0397 35.0961 51.9393 35.0358 51.8356 34.9818ZM49.2871 36.1839C49.4125 36.2471 49.533 36.3194 49.6477 36.4003L49.2871 36.1839Z" fill="white"/>
<path d="M54.0958 44.4786C54.0958 44.7271 54.0958 44.9795 54.0958 45.236C54.0958 45.3923 54.0958 45.5485 54.0958 45.7048C54.1024 45.7728 54.1024 45.8412 54.0958 45.9092C54.1026 45.9651 54.1026 46.0216 54.0958 46.0775C54.0794 46.2356 54.0513 46.3923 54.0116 46.5463C53.9973 46.6317 53.9772 46.716 53.9515 46.7987C53.9515 46.955 53.8674 47.1113 53.8193 47.2676C53.6623 47.8133 53.4488 48.3411 53.1822 48.8424C53.086 49.0347 52.9778 49.2391 52.8696 49.4194C52.7115 49.6917 52.5347 49.9528 52.3407 50.2008C52.3088 50.2556 52.2726 50.3079 52.2325 50.357C52.163 50.4545 52.0866 50.5469 52.0041 50.6335C51.8598 50.8138 51.7035 50.9821 51.5473 51.1504C51.391 51.3187 51.2948 51.4029 51.1626 51.5231C50.9988 51.681 50.8263 51.8295 50.6457 51.9679C50.5233 52.0717 50.3949 52.168 50.261 52.2564C50.1288 52.3646 49.9845 52.4608 49.8402 52.5569L49.5277 52.7493H49.4315V36.1599C49.5569 36.2231 49.6774 36.2954 49.7922 36.3763C49.9364 36.4725 50.0807 36.5686 50.2129 36.6768C50.3488 36.7623 50.4775 36.8588 50.5976 36.9653C50.7782 37.1037 50.9508 37.2522 51.1145 37.4101C51.2467 37.5303 51.379 37.6506 51.4992 37.7828C51.6194 37.915 51.8117 38.1194 51.956 38.2997C52.0386 38.3864 52.1149 38.4788 52.1844 38.5762C52.2245 38.6253 52.2607 38.6776 52.2926 38.7325C52.4866 38.9805 52.6634 39.2415 52.8215 39.5138C52.9353 39.7008 53.0396 39.8934 53.1341 40.0909C53.138 40.1188 53.138 40.1471 53.1341 40.175C53.2424 40.3817 53.3387 40.5944 53.4226 40.8121C53.4255 40.8321 53.4255 40.8523 53.4226 40.8723C53.4226 41.0285 53.5428 41.1728 53.5909 41.3291C53.6395 41.4368 53.6758 41.5498 53.6991 41.6657C53.6991 41.8219 53.7952 41.9782 53.8313 42.1345C53.857 42.2172 53.8771 42.3015 53.8914 42.3869C53.9321 42.5407 53.9603 42.6975 53.9756 42.8558C53.9824 42.9117 53.9824 42.9682 53.9756 43.0241C53.9822 43.092 53.9822 43.1605 53.9756 43.2284C53.9756 43.3847 53.9756 43.541 53.9756 43.6973C53.9756 43.8535 54.0958 44.2262 54.0958 44.4786Z" fill="white"/>
<path d="M46.883 35.1742V53.7831C46.8478 53.7942 46.81 53.7942 46.7748 53.7831C46.6575 53.8225 46.5367 53.8507 46.4141 53.8673C46.3747 53.8774 46.3334 53.8774 46.2939 53.8673L45.6929 53.9634H45.5847C45.4768 53.9753 45.368 53.9753 45.2601 53.9634C45.0077 53.9634 44.7432 53.9634 44.4787 53.9634C41.9281 53.9634 39.482 52.9502 37.6785 51.1467C35.8749 49.3431 34.8617 46.897 34.8617 44.3464C34.8617 41.7958 35.8749 39.3497 37.6785 37.5462C39.482 35.7426 41.9281 34.7294 44.4787 34.7294C44.7432 34.7294 45.0077 34.7294 45.2601 34.7294H45.3442C45.4239 34.717 45.505 34.717 45.5847 34.7294H45.6808L46.2819 34.8256L46.7868 34.9338L46.883 35.1742Z" fill="white"/>
</svg>
