<svg width="216" height="67" viewBox="0 0 216 67" fill="none" xmlns="http://www.w3.org/2000/svg">
<path d="M0.511045 49V9.39403H11.754V37.757H28.363V49H0.511045ZM38.4014 49.4088C32.7288 49.4088 28.1294 46.3937 28.1294 39.8523C28.1294 33.5153 34.6708 30.909 39.4746 30.909C41.5699 30.909 43.9207 31.2667 45.6072 31.7267V31.4201C45.6072 28.8648 43.7163 28.3538 40.2412 28.3538C36.3061 28.3538 33.4954 29.0693 31.0935 29.938L29.7648 20.5859C32.32 19.8704 36.4595 19.2061 41.3655 19.2061C51.382 19.2061 56.0836 23.3967 56.0836 31.4201V49H45.6072V47.3136C44.2784 48.489 42.4898 49.4088 38.4014 49.4088ZM38.4014 39.4946C38.4014 40.8233 39.9857 41.0788 41.9276 41.0788C43.4608 41.0788 44.4829 40.9255 45.6072 40.67V38.3192C44.2273 38.1659 42.5409 38.0636 41.3655 38.0636C39.679 38.0636 38.4014 38.5747 38.4014 39.4946ZM55.5721 49L67.7861 30.0913H57.1053V19.6149H87.4102L75.6051 38.5236H86.3881V49H55.5721ZM102.793 49.2555C92.01 49.2555 85.622 43.4296 85.622 34.9974C85.622 26.5651 89.8636 19.3083 100.493 19.3083C107.035 19.3083 114.292 22.7834 114.649 33.0554C114.7 33.822 114.752 35.8661 114.547 37.2971H96.8649C98.2959 39.4946 100.749 40.1589 103.304 40.1589C105.757 40.1589 107.75 39.239 110.203 37.8081L114.905 44.8094C111.787 47.1602 107.75 49.2555 102.793 49.2555ZM104.071 30.8068C103.56 29.3248 102.282 28.5582 100.544 28.5582C99.318 28.5582 97.4271 29.2226 96.6605 31.0623L104.071 30.8068ZM132.284 49.3577C129.166 49.3577 126.713 48.1823 124.924 46.2915V48.9489H114.448V5.56119H124.924V21.608C126.713 20.0238 129.064 19.2572 132.13 19.2572C140.051 19.2572 145.622 24.3676 145.622 34.333C145.622 43.8384 139.336 49.3577 132.284 49.3577ZM130.188 39.1368C133.306 39.1368 135.145 37.0416 135.145 34.3841C135.145 31.4201 132.846 29.2737 130.188 29.2737C127.071 29.2737 125.078 31.4201 125.078 34.333C125.078 36.786 127.071 39.1368 130.188 39.1368ZM145.39 49V19.6149H155.867V22.3235C157.655 20.3815 159.955 19.3083 162.715 19.3083C173.089 19.3083 174.418 26.4629 174.418 32.5444V49H163.941V33.7709C163.941 32.2377 162.868 29.9891 159.751 29.9891C157.706 29.9891 155.867 31.0112 155.867 35.815V49H145.39ZM184.428 49.4088C178.756 49.4088 174.156 46.3937 174.156 39.8523C174.156 33.5153 180.698 30.909 185.502 30.909C187.597 30.909 189.948 31.2667 191.634 31.7267V31.4201C191.634 28.8648 189.743 28.3538 186.268 28.3538C182.333 28.3538 179.522 29.0693 177.121 29.938L175.792 20.5859C178.347 19.8704 182.486 19.2061 187.393 19.2061C197.409 19.2061 202.111 23.3967 202.111 31.4201V49H191.634V47.3136C190.305 48.489 188.517 49.4088 184.428 49.4088ZM184.428 39.4946C184.428 40.8233 186.013 41.0788 187.955 41.0788C189.488 41.0788 190.51 40.9255 191.634 40.67V38.3192C190.254 38.1659 188.568 38.0636 187.393 38.0636C185.706 38.0636 184.428 38.5747 184.428 39.4946Z" fill="white"/>
<path d="M208.345 49.4088C205.483 49.4088 203.132 47.058 203.132 44.2984C203.132 41.4365 205.483 39.1879 208.345 39.1879C211.105 39.1879 213.353 41.4365 213.353 44.2984C213.353 47.058 211.105 49.4088 208.345 49.4088Z" fill="#E9520E"/>
<path d="M146.989 62.0916C146.222 62.0916 144.87 62.0229 144.115 61.9542V53.1253H146.783C148.661 53.1253 150.092 53.8353 150.092 55.4614C150.092 56.3431 149.748 57.1218 148.546 57.431C150.092 57.7058 150.458 58.7822 150.458 59.6067C150.458 61.416 149.039 62.0916 146.989 62.0916ZM145.248 60.8663C145.832 60.9007 146.405 60.9236 146.989 60.9236C148.718 60.9236 149.302 60.3854 149.302 59.6067C149.302 58.4616 148.535 58.118 146.657 58.118H145.248V60.8663ZM146.405 56.9729C148.546 56.9729 148.913 56.2744 148.913 55.4728C148.913 54.6712 147.985 54.2819 146.783 54.2819H145.248V56.9729H146.405ZM156.12 62L155.605 60.2938H152.387L151.872 62H150.681L153.338 53.1253H154.678L157.323 62H156.12ZM152.731 59.1601H155.273L154.002 54.9232L152.731 59.1601ZM158.125 61.9885V53.1253H160.781C162.831 53.1253 164.068 54.2017 164.068 55.8049C164.068 57.0302 163.392 57.9348 162.178 58.3356L164.469 62H163.129L160.953 58.5532C160.85 58.5646 160.759 58.5646 160.667 58.5646C160.197 58.5646 159.739 58.5646 159.258 58.4845V61.9885H158.125ZM159.258 57.3508C159.705 57.4195 160.175 57.4195 160.633 57.4195C162.717 57.4195 162.911 56.5034 162.911 55.8164C162.911 55.0148 162.133 54.2819 160.781 54.2819C160.255 54.2819 159.728 54.2933 159.258 54.3506V57.3508ZM168.144 62.0916C167.377 62.0916 166.025 62.0229 165.27 61.9542V53.1253H167.938C169.816 53.1253 171.247 53.8353 171.247 55.4614C171.247 56.3431 170.904 57.1218 169.701 57.431C171.247 57.7058 171.614 58.7822 171.614 59.6067C171.614 61.416 170.194 62.0916 168.144 62.0916ZM166.403 60.8663C166.987 60.9007 167.56 60.9236 168.144 60.9236C169.873 60.9236 170.457 60.3854 170.457 59.6067C170.457 58.4616 169.69 58.118 167.812 58.118H166.403V60.8663ZM167.56 56.9729C169.701 56.9729 170.068 56.2744 170.068 55.4728C170.068 54.6712 169.14 54.2819 167.938 54.2819H166.403V56.9729H167.56ZM172.471 62V53.1253H177.772V54.2475H173.616V57.0531H176.914V58.1639H173.616V60.8778H177.784V62H172.471ZM178.933 61.9885V53.1253H181.59C183.64 53.1253 184.876 54.2017 184.876 55.8049C184.876 57.0302 184.201 57.9348 182.987 58.3356L185.277 62H183.937L181.762 58.5532C181.659 58.5646 181.567 58.5646 181.475 58.5646C181.006 58.5646 180.548 58.5646 180.067 58.4845V61.9885H178.933ZM180.067 57.3508C180.514 57.4195 180.983 57.4195 181.441 57.4195C183.525 57.4195 183.72 56.5034 183.72 55.8164C183.72 55.0148 182.941 54.2819 181.59 54.2819C181.063 54.2819 180.536 54.2933 180.067 54.3506V57.3508ZM188.488 62.0916C186.897 62.0916 185.66 61.0381 185.454 59.4464L186.576 59.1258C186.782 60.2365 187.423 60.8892 188.488 60.8892C189.485 60.8892 190.034 60.4426 190.034 59.6411C190.034 57.6256 185.694 58.5074 185.694 55.5415C185.694 54.0872 186.897 53.0337 188.191 53.0337C189.805 53.0337 190.55 53.9155 190.893 54.9919L189.828 55.4041C189.542 54.6712 189.187 54.2361 188.191 54.2361C187.504 54.2361 186.908 54.8087 186.908 55.5415C186.908 57.431 191.237 56.5721 191.237 59.6411C191.237 61.2557 189.988 62.0916 188.488 62.0916ZM196.617 62V58.6792H193.239V62H192.094V53.1253H193.239V57.5569H196.617V53.1253H197.762V62H196.617ZM202.328 62.0916C199.855 62.0916 198.572 59.9502 198.572 57.5684C198.572 55.1751 199.855 53.0337 202.328 53.0337C204.836 53.0337 206.096 55.1751 206.096 57.5684C206.096 59.9502 204.836 62.0916 202.328 62.0916ZM202.328 60.935C204 60.935 204.962 59.4693 204.962 57.5684C204.962 55.7591 204 54.1903 202.328 54.1903C200.645 54.1903 199.717 55.7591 199.717 57.5684C199.717 59.4693 200.645 60.935 202.328 60.935ZM206.954 62V53.1253H209.61C211.672 53.1253 212.92 54.1903 212.92 55.8049C212.92 57.4768 211.649 58.5646 209.496 58.5761C209.026 58.5761 208.568 58.5761 208.087 58.4959V62H206.954ZM208.087 57.3508C208.534 57.4195 209.004 57.4195 209.462 57.4195C211.557 57.4195 211.752 56.5034 211.752 55.8164C211.752 55.0033 210.973 54.2819 209.61 54.2819C209.084 54.2819 208.546 54.2933 208.087 54.3392V57.3508Z" fill="white"/>
</svg>
