<svg width="37" height="37" viewBox="0 0 37 37" fill="none" xmlns="http://www.w3.org/2000/svg">
<path fill-rule="evenodd" clip-rule="evenodd" d="M18.5 5.5498C18.9907 5.5498 19.4613 5.74471 19.8082 6.09166C20.1551 6.4386 20.35 6.90915 20.35 7.3998V16.6498H29.6C30.0907 16.6498 30.5613 16.8447 30.9082 17.1917C31.2551 17.5386 31.45 18.0092 31.45 18.4998C31.45 18.9905 31.2551 19.461 30.9082 19.808C30.5613 20.1549 30.0907 20.3498 29.6 20.3498H20.35V29.5998C20.35 30.0905 20.1551 30.561 19.8082 30.908C19.4613 31.2549 18.9907 31.4498 18.5 31.4498C18.0094 31.4498 17.5388 31.2549 17.1919 30.908C16.845 30.561 16.65 30.0905 16.65 29.5998V20.3498H7.40005C6.9094 20.3498 6.43884 20.1549 6.0919 19.808C5.74496 19.461 5.55005 18.9905 5.55005 18.4998C5.55005 18.0092 5.74496 17.5386 6.0919 17.1917C6.43884 16.8447 6.9094 16.6498 7.40005 16.6498H16.65V7.3998C16.65 6.90915 16.845 6.4386 17.1919 6.09166C17.5388 5.74471 18.0094 5.5498 18.5 5.5498Z" fill="#595959"/>
</svg>
