<svg width="152" height="152" viewBox="0 0 152 152" fill="none" xmlns="http://www.w3.org/2000/svg">
<circle cx="76" cy="76" r="75.1648" stroke="#E9520E" stroke-width="1.67033"/>
<path d="M83.9164 46.0415L113.375 75.4998M113.375 75.4998L83.9164 104.958M113.375 75.4998L37.6248 75.4998" stroke="#E9520E" stroke-width="3" stroke-linecap="round" stroke-linejoin="round"/>
<path d="M36.5573 70.1833L36.5573 63.8923L38.7613 63.8923C39.1976 63.8923 39.5579 63.9683 39.8422 64.1203C40.1265 64.2695 40.3376 64.4708 40.4755 64.7241C40.6162 64.9774 40.6866 65.2575 40.6866 65.5643C40.6866 65.8345 40.6387 66.0583 40.543 66.2356C40.4473 66.4101 40.3221 66.5495 40.1673 66.6536C40.0125 66.755 39.845 66.831 39.6648 66.8816L39.6648 66.9407C39.8591 66.952 40.0533 67.0195 40.2475 67.1434C40.4417 67.2672 40.6036 67.4432 40.733 67.6712C40.8653 67.8992 40.9315 68.1792 40.9315 68.5114C40.9315 68.8266 40.8597 69.1109 40.7162 69.3643C40.5726 69.6148 40.346 69.8146 40.0364 69.9638C39.7296 70.1102 39.3271 70.1833 38.8288 70.1833L36.5573 70.1833ZM37.3173 69.5078L38.8288 69.5078C39.3271 69.5078 39.6803 69.4107 39.8886 69.2165C40.0997 69.0223 40.2053 68.7872 40.2053 68.5114C40.2053 68.2975 40.1504 68.1004 40.0406 67.9203C39.9336 67.7401 39.7802 67.5952 39.5804 67.4854C39.3805 67.3756 39.1441 67.3207 38.8711 67.3207L37.3173 67.3207L37.3173 69.5078ZM37.3173 66.6621L38.736 66.6621C38.964 66.6621 39.1708 66.617 39.3566 66.527C39.5424 66.4341 39.6888 66.306 39.7957 66.1427C39.9055 65.9767 39.9604 65.7839 39.9604 65.5643C39.9604 65.2885 39.8647 65.0534 39.6733 64.8592C39.4819 64.665 39.1779 64.5679 38.7613 64.5679L37.3173 64.5679L37.3173 66.6621ZM44.3134 70.2678C43.7786 70.2678 43.3015 70.1369 42.8821 69.8751C42.4627 69.6134 42.132 69.2418 41.8899 68.7605C41.6507 68.2763 41.531 67.7035 41.531 67.0421C41.531 66.3778 41.6507 65.8036 41.8899 65.3194C42.132 64.8353 42.4627 64.4623 42.8821 64.2005C43.3015 63.9388 43.7786 63.8079 44.3134 63.8079C44.8511 63.8079 45.3282 63.9388 45.7448 64.2005C46.1613 64.4623 46.4893 64.8353 46.7285 65.3194C46.9678 65.8036 47.0874 66.3778 47.0874 67.0421C47.0874 67.7035 46.9678 68.2763 46.7285 68.7605C46.4893 69.2418 46.1613 69.6134 45.7448 69.8751C45.3282 70.1369 44.8511 70.2678 44.3134 70.2678ZM44.3134 69.5585C44.6934 69.5585 45.0368 69.4628 45.3436 69.2714C45.6533 69.0771 45.8982 68.7929 46.0783 68.4185C46.2613 68.0441 46.3527 67.5853 46.3527 67.0421C46.3527 66.496 46.2613 66.0358 46.0783 65.6614C45.8982 65.2842 45.6533 64.9999 45.3436 64.8085C45.0368 64.6143 44.6934 64.5172 44.3134 64.5172C43.9334 64.5172 43.5886 64.6143 43.279 64.8085C42.9694 64.9999 42.7231 65.2842 42.5401 65.6614C42.3572 66.0358 42.2657 66.496 42.2657 67.0421C42.2657 67.5853 42.3572 68.0441 42.5401 68.4185C42.7231 68.7929 42.9694 69.0771 43.279 69.2714C43.5886 69.4628 43.9334 69.5585 44.3134 69.5585ZM50.4947 70.2678C49.9599 70.2678 49.4828 70.1369 49.0634 69.8751C48.644 69.6134 48.3132 69.2418 48.0712 68.7605C47.8319 68.2763 47.7123 67.7035 47.7123 67.0421C47.7123 66.3778 47.8319 65.8036 48.0712 65.3194C48.3132 64.8353 48.644 64.4623 49.0634 64.2005C49.4828 63.9388 49.9599 63.8079 50.4947 63.8079C51.0323 63.8079 51.5094 63.9388 51.926 64.2005C52.3426 64.4623 52.6705 64.8353 52.9098 65.3194C53.149 65.8036 53.2686 66.3778 53.2686 67.0421C53.2686 67.7035 53.149 68.2763 52.9098 68.7605C52.6705 69.2418 52.3426 69.6134 51.926 69.8751C51.5094 70.1369 51.0323 70.2678 50.4947 70.2678ZM50.4947 69.5585C50.8747 69.5585 51.2181 69.4628 51.5249 69.2714C51.8345 69.0771 52.0794 68.7929 52.2595 68.4185C52.4425 68.0441 52.534 67.5853 52.534 67.0421C52.534 66.496 52.4425 66.0358 52.2595 65.6614C52.0794 65.2842 51.8345 64.9999 51.5249 64.8085C51.2181 64.6143 50.8747 64.5172 50.4947 64.5172C50.1147 64.5172 49.7699 64.6143 49.4603 64.8085C49.1506 64.9999 48.9043 65.2842 48.7214 65.6614C48.5384 66.0358 48.4469 66.496 48.4469 67.0421C48.4469 67.5853 48.5384 68.0441 48.7214 68.4185C48.9043 68.7929 49.1506 69.0771 49.4603 69.2714C49.7699 69.4628 50.1147 69.5585 50.4947 69.5585ZM54.1384 70.1834L54.1384 63.8923L54.8984 63.8923L54.8984 67.0167L54.9744 67.0167L57.8032 63.8923L58.7912 63.8923L56.1566 66.7296L58.7912 70.1834L57.8708 70.1834L55.6837 67.2616L54.8984 68.1483L54.8984 70.1834L54.1384 70.1834ZM66.3996 63.8923L66.3996 70.1834L65.648 70.1834L62.2281 65.2434L62.1605 65.2434L62.1605 70.1834L61.4005 70.1834L61.4005 63.8923L62.1352 63.8923L65.5805 68.8407L65.6396 68.8407L65.6396 63.8923L66.3996 63.8923ZM70.0517 70.2678C69.5169 70.2678 69.0398 70.1369 68.6204 69.8751C68.201 69.6134 67.8703 69.2418 67.6282 68.7605C67.389 68.2763 67.2693 67.7035 67.2693 67.0421C67.2693 66.3778 67.389 65.8036 67.6282 65.3194C67.8703 64.8353 68.201 64.4623 68.6204 64.2005C69.0398 63.9388 69.5169 63.8079 70.0517 63.8079C70.5894 63.8079 71.0665 63.9388 71.4831 64.2005C71.8996 64.4623 72.2276 64.8353 72.4668 65.3194C72.7061 65.8036 72.8257 66.3778 72.8257 67.0421C72.8257 67.7035 72.7061 68.2763 72.4668 68.7605C72.2276 69.2418 71.8996 69.6134 71.4831 69.8751C71.0665 70.1369 70.5894 70.2678 70.0517 70.2678ZM70.0517 69.5585C70.4317 69.5585 70.7751 69.4628 71.0819 69.2714C71.3916 69.0771 71.6365 68.7929 71.8166 68.4185C71.9996 68.0441 72.091 67.5853 72.091 67.0421C72.091 66.496 71.9996 66.0358 71.8166 65.6614C71.6365 65.2842 71.3916 64.9999 71.0819 64.8085C70.7751 64.6143 70.4317 64.5172 70.0517 64.5172C69.6717 64.5172 69.3269 64.6143 69.0173 64.8085C68.7077 64.9999 68.4614 65.2842 68.2784 65.6614C68.0955 66.0358 68.004 66.496 68.004 67.0421C68.004 67.5853 68.0955 68.0441 68.2784 68.4185C68.4614 68.7929 68.7077 69.0771 69.0173 69.2714C69.3269 69.4628 69.6717 69.5585 70.0517 69.5585ZM74.865 70.1834L73.1508 63.8923L73.9192 63.8923L75.2366 69.018L75.2957 69.018L76.6383 63.8923L77.4996 63.8923L78.8338 69.018L78.9014 69.018L80.2103 63.8923L80.9871 63.8923L79.2645 70.1834L78.4792 70.1834L77.0943 65.1759L77.0436 65.1759L75.6588 70.1834L74.865 70.1834Z" fill="#E9520E"/>
</svg>
