<svg width="152" height="152" viewBox="0 0 152 152" fill="none" xmlns="http://www.w3.org/2000/svg">
<circle cx="76" cy="76" r="75.1648" stroke="white" stroke-width="1.67033"/>
<path d="M60.6211 48.7184L102.281 48.7184M102.281 48.7184L102.281 90.3787M102.281 48.7184L48.7181 102.282" stroke="white" stroke-width="3" stroke-linecap="round" stroke-linejoin="round"/>
<path d="M44.7334 99.8292L40.2462 95.3421L41.8183 93.7701C42.1294 93.4589 42.4406 93.2561 42.7518 93.1617C43.061 93.0654 43.3551 93.0583 43.6342 93.1407C43.9153 93.221 44.1652 93.3705 44.3841 93.5894C44.5768 93.7821 44.7023 93.9758 44.7605 94.1706C44.8167 94.3633 44.8268 94.5521 44.7906 94.7368C44.7525 94.9195 44.6872 95.0931 44.5949 95.2578L44.637 95.2999C44.7836 95.1694 44.9703 95.0791 45.1972 95.0289C45.424 94.9787 45.665 94.9887 45.9199 95.059C46.1769 95.1273 46.4239 95.2798 46.6608 95.5167C46.8856 95.7416 47.0372 95.9956 47.1155 96.2787C47.1918 96.5597 47.1727 96.8639 47.0583 97.1911C46.9439 97.5144 46.709 97.8537 46.3536 98.209L44.7334 99.8292ZM44.7936 98.8053L45.8718 97.7272C46.2271 97.3718 46.4098 97.0506 46.4199 96.7635C46.4319 96.4744 46.3395 96.2315 46.1428 96.0347C45.9902 95.8821 45.8105 95.7808 45.6037 95.7306C45.399 95.6784 45.1861 95.6844 44.9653 95.7486C44.7444 95.8129 44.5367 95.9424 44.3419 96.1371L43.2337 97.2454L44.7936 98.8053ZM42.7639 96.7756L43.7757 95.7637C43.9384 95.6011 44.0538 95.4214 44.1221 95.2246C44.1883 95.0259 44.2014 94.8301 44.1612 94.6374C44.1211 94.4406 44.0227 94.264 43.8661 94.1074C43.6693 93.9106 43.4334 93.8112 43.1584 93.8092C42.8833 93.8072 42.5972 93.9548 42.3001 94.2519L41.2702 95.2818L42.7639 96.7756ZM50.3258 94.3573C49.9443 94.7388 49.5107 94.9857 49.0248 95.0981C48.539 95.2106 48.038 95.1815 47.5221 95.0108C47.0061 94.8361 46.5122 94.5129 46.0404 94.0411C45.5666 93.5673 45.2424 93.0724 45.0677 92.5564C44.895 92.0384 44.8649 91.5365 44.9773 91.0507C45.0898 90.5648 45.3367 90.1311 45.7182 89.7497C46.1016 89.3662 46.5353 89.1193 47.0191 89.0089C47.503 88.8984 48.0029 88.9306 48.5189 89.1052C49.0349 89.2799 49.5297 89.6041 50.0036 90.0779C50.4754 90.5497 50.7986 91.0436 50.9733 91.5596C51.1459 92.0736 51.177 92.5725 51.0666 93.0563C50.9562 93.5402 50.7093 93.9738 50.3258 94.3573ZM49.8199 93.8514C50.0909 93.5803 50.2676 93.2671 50.3499 92.9118C50.4322 92.5524 50.4041 92.175 50.2656 91.7794C50.129 91.3819 49.867 90.9894 49.4796 90.6019C49.0901 90.2125 48.6966 89.9495 48.299 89.8129C47.9015 89.6724 47.5241 89.6443 47.1667 89.7286C46.8093 89.8089 46.4951 89.9846 46.2241 90.2556C45.9531 90.5267 45.7764 90.8419 45.6941 91.2012C45.6098 91.5586 45.6369 91.9371 45.7754 92.3366C45.9119 92.7341 46.1749 93.1276 46.5644 93.5171C46.9519 93.9046 47.3444 94.1666 47.7419 94.3031C48.1394 94.4396 48.5179 94.4667 48.8773 94.3844C49.2346 94.3001 49.5488 94.1224 49.8199 93.8514ZM54.7347 89.9484C54.3532 90.3299 53.9195 90.5769 53.4337 90.6893C52.9478 90.8017 52.4469 90.7726 51.9309 90.6019C51.415 90.4273 50.9211 90.104 50.4493 89.6322C49.9755 89.1584 49.6512 88.6635 49.4765 88.1476C49.3039 87.6296 49.2738 87.1277 49.3862 86.6418C49.4986 86.1559 49.7456 85.7223 50.127 85.3408C50.5105 84.9574 50.9442 84.7104 51.428 84.6C51.9119 84.4896 52.4118 84.5217 52.9277 84.6964C53.4437 84.871 53.9386 85.1953 54.4124 85.6691C54.8842 86.1409 55.2075 86.6348 55.3821 87.1507C55.5548 87.6647 55.5859 88.1636 55.4755 88.6475C55.3651 89.1313 55.1181 89.565 54.7347 89.9484ZM54.2287 89.4425C54.4998 89.1715 54.6764 88.8583 54.7587 88.5029C54.8411 88.1435 54.813 87.7661 54.6744 87.3706C54.5379 86.9731 54.2759 86.5806 53.8884 86.1931C53.4989 85.8036 53.1054 85.5406 52.7079 85.4041C52.3104 85.2635 51.9329 85.2354 51.5756 85.3197C51.2182 85.4001 50.904 85.5757 50.633 85.8468C50.3619 86.1178 50.1853 86.433 50.1029 86.7924C50.0186 87.1497 50.0457 87.5282 50.1843 87.9277C50.3208 88.3252 50.5838 88.7187 50.9733 89.1082C51.3607 89.4957 51.7533 89.7577 52.1508 89.8942C52.5483 90.0308 52.9267 90.0579 53.2861 89.9756C53.6435 89.8912 53.9577 89.7135 54.2287 89.4425ZM57.2734 87.2893L52.7862 82.8021L53.3283 82.26L55.5568 84.4886L55.611 84.4344L55.4002 80.1881L56.1049 79.4834L56.2494 83.3864L60.5921 83.9706L59.9355 84.6271L56.2916 84.1031L56.3639 85.2957L57.8154 86.7472L57.2734 87.2893ZM61.5316 74.0567L66.0188 78.5438L65.4828 79.0799L59.52 77.9957L59.4718 78.0439L62.9952 81.5674L62.4532 82.1095L57.966 77.6223L58.49 77.0983L64.4769 78.1704L64.5191 78.1282L60.9896 74.5987L61.5316 74.0567ZM68.684 75.9991C68.3025 76.3806 67.8689 76.6275 67.383 76.7399C66.8972 76.8524 66.3962 76.8233 65.8803 76.6526C65.3643 76.4779 64.8704 76.1547 64.3986 75.6829C63.9248 75.2091 63.6006 74.7142 63.4259 74.1982C63.2532 73.6802 63.2231 73.1783 63.3355 72.6925C63.448 72.2066 63.6949 71.7729 64.0764 71.3915C64.4598 71.008 64.8935 70.7611 65.3774 70.6506C65.8612 70.5402 66.3611 70.5723 66.8771 70.747C67.3931 70.9217 67.888 71.2459 68.3618 71.7197C68.8336 72.1915 69.1568 72.6854 69.3315 73.2014C69.5041 73.7154 69.5353 74.2143 69.4248 74.6981C69.3144 75.182 69.0675 75.6156 68.684 75.9991ZM68.1781 75.4932C68.4491 75.2221 68.6258 74.9089 68.7081 74.5536C68.7904 74.1942 68.7623 73.8168 68.6238 73.4212C68.4872 73.0237 68.2252 72.6312 67.8378 72.2437C67.4483 71.8543 67.0548 71.5912 66.6572 71.4547C66.2597 71.3142 65.8823 71.2861 65.5249 71.3704C65.1676 71.4507 64.8533 71.6264 64.5823 71.8974C64.3113 72.1685 64.1346 72.4837 64.0523 72.843C63.968 73.2004 63.9951 73.5788 64.1336 73.9784C64.2701 74.3759 64.5331 74.7694 64.9226 75.1589C65.3101 75.5464 65.7026 75.8084 66.1001 75.9449C66.4976 76.0814 66.8761 76.1085 67.2355 76.0262C67.5928 75.9419 67.907 75.7642 68.1781 75.4932ZM72.0569 72.5057L66.3471 69.2413L66.8952 68.6932L71.4907 71.4096L71.5329 71.3674L68.8346 66.7537L69.4489 66.1394L74.0565 68.8437L74.1047 68.7956L71.3823 64.206L71.9364 63.6519L75.1949 69.3677L74.6348 69.9279L70.0753 67.344L70.0392 67.3801L72.6231 71.9396L72.0569 72.5057Z" fill="white"/>
</svg>
